<mxfile host="app.diagrams.net" agent="Mozilla/5.0 (Macintosh; Intel Mac OS X 10.15; rv:136.0) Gecko/20100101 Firefox/136.0" version="26.1.1">
  <diagram id="C5RBs43oDa-KdzZeNtuy" name="Page-1">
    <mxGraphModel dx="1242" dy="794" grid="1" gridSize="10" guides="1" tooltips="1" connect="1" arrows="1" fold="1" page="1" pageScale="1" pageWidth="827" pageHeight="1169" math="0" shadow="0">
      <root>
        <mxCell id="WIyWlLk6GJQsqaUBKTNV-0" />
        <mxCell id="WIyWlLk6GJQsqaUBKTNV-1" parent="WIyWlLk6GJQsqaUBKTNV-0" />
        <mxCell id="Dmz19lWrv8xA1mBH7heF-23" style="edgeStyle=orthogonalEdgeStyle;rounded=0;orthogonalLoop=1;jettySize=auto;html=1;" edge="1" parent="WIyWlLk6GJQsqaUBKTNV-1" source="Dmz19lWrv8xA1mBH7heF-8" target="Dmz19lWrv8xA1mBH7heF-18">
          <mxGeometry relative="1" as="geometry" />
        </mxCell>
        <mxCell id="Dmz19lWrv8xA1mBH7heF-8" value="Parse CLI args :&lt;br&gt;min_support, input/output file" style="rounded=0;whiteSpace=wrap;html=1;" vertex="1" parent="WIyWlLk6GJQsqaUBKTNV-1">
          <mxGeometry x="180" y="208.75" width="120" height="50" as="geometry" />
        </mxCell>
        <mxCell id="Dmz19lWrv8xA1mBH7heF-11" value="comparision" style="rounded=0;whiteSpace=wrap;html=1;dashed=1;" vertex="1" parent="WIyWlLk6GJQsqaUBKTNV-1">
          <mxGeometry x="320" y="1070" width="120" height="60" as="geometry" />
        </mxCell>
        <mxCell id="Dmz19lWrv8xA1mBH7heF-27" style="edgeStyle=orthogonalEdgeStyle;rounded=0;orthogonalLoop=1;jettySize=auto;html=1;entryX=0;entryY=0.5;entryDx=0;entryDy=0;" edge="1" parent="WIyWlLk6GJQsqaUBKTNV-1" source="Dmz19lWrv8xA1mBH7heF-17" target="Dmz19lWrv8xA1mBH7heF-8">
          <mxGeometry relative="1" as="geometry" />
        </mxCell>
        <mxCell id="Dmz19lWrv8xA1mBH7heF-17" value="&lt;div&gt;start&lt;/div&gt;" style="ellipse;whiteSpace=wrap;html=1;" vertex="1" parent="WIyWlLk6GJQsqaUBKTNV-1">
          <mxGeometry x="40" y="218.75" width="90" height="30" as="geometry" />
        </mxCell>
        <mxCell id="Dmz19lWrv8xA1mBH7heF-21" style="edgeStyle=orthogonalEdgeStyle;rounded=0;orthogonalLoop=1;jettySize=auto;html=1;" edge="1" parent="WIyWlLk6GJQsqaUBKTNV-1" source="Dmz19lWrv8xA1mBH7heF-18" target="Dmz19lWrv8xA1mBH7heF-20">
          <mxGeometry relative="1" as="geometry" />
        </mxCell>
        <mxCell id="Dmz19lWrv8xA1mBH7heF-22" value="invalid" style="edgeLabel;html=1;align=center;verticalAlign=middle;resizable=0;points=[];" vertex="1" connectable="0" parent="Dmz19lWrv8xA1mBH7heF-21">
          <mxGeometry x="0.4016" y="1" relative="1" as="geometry">
            <mxPoint as="offset" />
          </mxGeometry>
        </mxCell>
        <mxCell id="Dmz19lWrv8xA1mBH7heF-25" style="edgeStyle=orthogonalEdgeStyle;rounded=0;orthogonalLoop=1;jettySize=auto;html=1;" edge="1" parent="WIyWlLk6GJQsqaUBKTNV-1" source="Dmz19lWrv8xA1mBH7heF-18" target="Dmz19lWrv8xA1mBH7heF-24">
          <mxGeometry relative="1" as="geometry" />
        </mxCell>
        <mxCell id="Dmz19lWrv8xA1mBH7heF-26" value="valid" style="edgeLabel;html=1;align=center;verticalAlign=middle;resizable=0;points=[];" vertex="1" connectable="0" parent="Dmz19lWrv8xA1mBH7heF-25">
          <mxGeometry x="0.1697" y="1" relative="1" as="geometry">
            <mxPoint as="offset" />
          </mxGeometry>
        </mxCell>
        <mxCell id="Dmz19lWrv8xA1mBH7heF-18" value="&lt;font style=&quot;font-size: 9px;&quot;&gt;check:&lt;br&gt;#of args, &lt;br&gt;min_sup&#39;s type&lt;/font&gt;" style="rhombus;whiteSpace=wrap;html=1;" vertex="1" parent="WIyWlLk6GJQsqaUBKTNV-1">
          <mxGeometry x="380" y="200" width="120" height="68.75" as="geometry" />
        </mxCell>
        <mxCell id="Dmz19lWrv8xA1mBH7heF-20" value="terminate" style="ellipse;whiteSpace=wrap;html=1;" vertex="1" parent="WIyWlLk6GJQsqaUBKTNV-1">
          <mxGeometry x="630" y="218.75" width="90" height="30" as="geometry" />
        </mxCell>
        <mxCell id="Dmz19lWrv8xA1mBH7heF-97" style="edgeStyle=orthogonalEdgeStyle;rounded=0;orthogonalLoop=1;jettySize=auto;html=1;" edge="1" parent="WIyWlLk6GJQsqaUBKTNV-1" source="Dmz19lWrv8xA1mBH7heF-24" target="Dmz19lWrv8xA1mBH7heF-28">
          <mxGeometry relative="1" as="geometry" />
        </mxCell>
        <mxCell id="Dmz19lWrv8xA1mBH7heF-24" value="&lt;div&gt;load_data()&lt;/div&gt;&lt;div&gt;: &lt;font style=&quot;font-size: 7px;&quot;&gt;opening the file, reading data, and converting each line into an item set&lt;/font&gt;&lt;/div&gt;" style="rounded=0;whiteSpace=wrap;html=1;" vertex="1" parent="WIyWlLk6GJQsqaUBKTNV-1">
          <mxGeometry x="380" y="298.75" width="120" height="60" as="geometry" />
        </mxCell>
        <mxCell id="Dmz19lWrv8xA1mBH7heF-86" style="edgeStyle=orthogonalEdgeStyle;rounded=0;orthogonalLoop=1;jettySize=auto;html=1;entryX=0.5;entryY=0;entryDx=0;entryDy=0;" edge="1" parent="WIyWlLk6GJQsqaUBKTNV-1" source="Dmz19lWrv8xA1mBH7heF-28" target="Dmz19lWrv8xA1mBH7heF-68">
          <mxGeometry relative="1" as="geometry">
            <Array as="points">
              <mxPoint x="95" y="720" />
              <mxPoint x="390" y="720" />
            </Array>
          </mxGeometry>
        </mxCell>
        <mxCell id="Dmz19lWrv8xA1mBH7heF-28" value="&lt;div&gt;apriori&lt;/div&gt;" style="rounded=0;whiteSpace=wrap;html=1;" vertex="1" parent="WIyWlLk6GJQsqaUBKTNV-1">
          <mxGeometry x="35" y="535" width="120" height="60" as="geometry" />
        </mxCell>
        <mxCell id="Dmz19lWrv8xA1mBH7heF-29" value="&lt;font style=&quot;font-size: 10px;&quot;&gt;Generate L1(signle item candidates)&lt;/font&gt;" style="whiteSpace=wrap;html=1;align=center;verticalAlign=middle;treeFolding=1;treeMoving=1;newEdgeStyle={&quot;edgeStyle&quot;:&quot;elbowEdgeStyle&quot;,&quot;startArrow&quot;:&quot;none&quot;,&quot;endArrow&quot;:&quot;none&quot;};" vertex="1" parent="WIyWlLk6GJQsqaUBKTNV-1">
          <mxGeometry x="240" y="545" width="100" height="30" as="geometry" />
        </mxCell>
        <mxCell id="Dmz19lWrv8xA1mBH7heF-30" value="" style="edgeStyle=elbowEdgeStyle;elbow=vertical;sourcePerimeterSpacing=0;targetPerimeterSpacing=0;startArrow=none;endArrow=none;rounded=0;curved=0;exitX=1.011;exitY=0.395;exitDx=0;exitDy=0;exitPerimeter=0;" edge="1" target="Dmz19lWrv8xA1mBH7heF-29" parent="WIyWlLk6GJQsqaUBKTNV-1" source="Dmz19lWrv8xA1mBH7heF-28">
          <mxGeometry relative="1" as="geometry">
            <mxPoint x="200" y="150" as="sourcePoint" />
          </mxGeometry>
        </mxCell>
        <mxCell id="Dmz19lWrv8xA1mBH7heF-41" style="edgeStyle=elbowEdgeStyle;rounded=0;orthogonalLoop=1;jettySize=auto;html=1;startArrow=none;endArrow=none;entryX=0.5;entryY=0;entryDx=0;entryDy=0;" edge="1" parent="WIyWlLk6GJQsqaUBKTNV-1" source="Dmz19lWrv8xA1mBH7heF-36" target="Dmz19lWrv8xA1mBH7heF-37">
          <mxGeometry relative="1" as="geometry" />
        </mxCell>
        <mxCell id="Dmz19lWrv8xA1mBH7heF-36" value="&lt;font style=&quot;font-size: 10px;&quot;&gt;Generate Candidates &lt;/font&gt;" style="whiteSpace=wrap;html=1;align=center;verticalAlign=middle;treeFolding=1;treeMoving=1;newEdgeStyle={&quot;edgeStyle&quot;:&quot;elbowEdgeStyle&quot;,&quot;startArrow&quot;:&quot;none&quot;,&quot;endArrow&quot;:&quot;none&quot;};" vertex="1" parent="WIyWlLk6GJQsqaUBKTNV-1">
          <mxGeometry x="380" y="555" width="100" height="30" as="geometry" />
        </mxCell>
        <mxCell id="Dmz19lWrv8xA1mBH7heF-93" style="edgeStyle=elbowEdgeStyle;rounded=0;orthogonalLoop=1;jettySize=auto;html=1;startArrow=none;endArrow=none;" edge="1" parent="WIyWlLk6GJQsqaUBKTNV-1" source="Dmz19lWrv8xA1mBH7heF-37">
          <mxGeometry relative="1" as="geometry">
            <mxPoint x="680" y="569.9999999999998" as="targetPoint" />
          </mxGeometry>
        </mxCell>
        <mxCell id="Dmz19lWrv8xA1mBH7heF-37" value="&lt;font style=&quot;font-size: 10px;&quot;&gt;Prune Candidates&lt;/font&gt;" style="whiteSpace=wrap;html=1;align=center;verticalAlign=middle;treeFolding=1;treeMoving=1;newEdgeStyle={&quot;edgeStyle&quot;:&quot;elbowEdgeStyle&quot;,&quot;startArrow&quot;:&quot;none&quot;,&quot;endArrow&quot;:&quot;none&quot;};" vertex="1" parent="WIyWlLk6GJQsqaUBKTNV-1">
          <mxGeometry x="520" y="560" width="100" height="20" as="geometry" />
        </mxCell>
        <mxCell id="Dmz19lWrv8xA1mBH7heF-39" style="edgeStyle=elbowEdgeStyle;rounded=0;orthogonalLoop=1;jettySize=auto;html=1;startArrow=none;endArrow=none;entryX=0.5;entryY=0;entryDx=0;entryDy=0;" edge="1" parent="WIyWlLk6GJQsqaUBKTNV-1" source="Dmz19lWrv8xA1mBH7heF-36" target="Dmz19lWrv8xA1mBH7heF-36">
          <mxGeometry relative="1" as="geometry" />
        </mxCell>
        <mxCell id="Dmz19lWrv8xA1mBH7heF-94" style="edgeStyle=orthogonalEdgeStyle;rounded=0;orthogonalLoop=1;jettySize=auto;html=1;entryX=0.5;entryY=0;entryDx=0;entryDy=0;" edge="1" parent="WIyWlLk6GJQsqaUBKTNV-1" target="Dmz19lWrv8xA1mBH7heF-36">
          <mxGeometry relative="1" as="geometry">
            <mxPoint x="720.0588235294117" y="559.3176470588232" as="sourcePoint" />
            <Array as="points">
              <mxPoint x="720" y="535" />
              <mxPoint x="430" y="535" />
            </Array>
          </mxGeometry>
        </mxCell>
        <mxCell id="Dmz19lWrv8xA1mBH7heF-95" value="yes" style="edgeLabel;html=1;align=center;verticalAlign=middle;resizable=0;points=[];" vertex="1" connectable="0" parent="Dmz19lWrv8xA1mBH7heF-94">
          <mxGeometry x="0.1602" y="2" relative="1" as="geometry">
            <mxPoint as="offset" />
          </mxGeometry>
        </mxCell>
        <mxCell id="Dmz19lWrv8xA1mBH7heF-96" style="edgeStyle=orthogonalEdgeStyle;rounded=0;orthogonalLoop=1;jettySize=auto;html=1;entryX=0.5;entryY=1;entryDx=0;entryDy=0;" edge="1" parent="WIyWlLk6GJQsqaUBKTNV-1" target="Dmz19lWrv8xA1mBH7heF-50">
          <mxGeometry relative="1" as="geometry">
            <mxPoint x="755" y="549.9999999999998" as="sourcePoint" />
          </mxGeometry>
        </mxCell>
        <mxCell id="Dmz19lWrv8xA1mBH7heF-42" value="&lt;font style=&quot;font-size: 7px;&quot;&gt;Are there more frequent itemsets?&lt;/font&gt;" style="rhombus;whiteSpace=wrap;html=1;" vertex="1" parent="WIyWlLk6GJQsqaUBKTNV-1">
          <mxGeometry x="660" y="545" width="150" height="40" as="geometry" />
        </mxCell>
        <mxCell id="Dmz19lWrv8xA1mBH7heF-50" value="exit" style="ellipse;whiteSpace=wrap;html=1;" vertex="1" parent="WIyWlLk6GJQsqaUBKTNV-1">
          <mxGeometry x="715" y="485" width="80" height="30" as="geometry" />
        </mxCell>
        <mxCell id="Dmz19lWrv8xA1mBH7heF-75" value="" style="edgeStyle=orthogonalEdgeStyle;rounded=0;orthogonalLoop=1;jettySize=auto;html=1;endArrow=none;startFill=0;" edge="1" parent="WIyWlLk6GJQsqaUBKTNV-1" source="Dmz19lWrv8xA1mBH7heF-68" target="Dmz19lWrv8xA1mBH7heF-74">
          <mxGeometry relative="1" as="geometry">
            <Array as="points">
              <mxPoint x="655" y="760" />
            </Array>
          </mxGeometry>
        </mxCell>
        <mxCell id="Dmz19lWrv8xA1mBH7heF-68" value="generate Association rules" style="rounded=0;whiteSpace=wrap;html=1;" vertex="1" parent="WIyWlLk6GJQsqaUBKTNV-1">
          <mxGeometry x="330" y="750" width="120" height="60" as="geometry" />
        </mxCell>
        <mxCell id="Dmz19lWrv8xA1mBH7heF-90" value="" style="edgeStyle=orthogonalEdgeStyle;rounded=0;orthogonalLoop=1;jettySize=auto;html=1;" edge="1" parent="WIyWlLk6GJQsqaUBKTNV-1" source="Dmz19lWrv8xA1mBH7heF-74" target="Dmz19lWrv8xA1mBH7heF-89">
          <mxGeometry relative="1" as="geometry" />
        </mxCell>
        <mxCell id="Dmz19lWrv8xA1mBH7heF-74" value="&lt;font style=&quot;font-size: 10px;&quot;&gt;Generate Proper nonempty subsets&lt;/font&gt;" style="whiteSpace=wrap;html=1;rounded=0;" vertex="1" parent="WIyWlLk6GJQsqaUBKTNV-1">
          <mxGeometry x="600" y="780" width="110" height="40" as="geometry" />
        </mxCell>
        <mxCell id="Dmz19lWrv8xA1mBH7heF-84" style="edgeStyle=orthogonalEdgeStyle;rounded=0;orthogonalLoop=1;jettySize=auto;html=1;" edge="1" parent="WIyWlLk6GJQsqaUBKTNV-1" source="Dmz19lWrv8xA1mBH7heF-83" target="Dmz19lWrv8xA1mBH7heF-11">
          <mxGeometry relative="1" as="geometry" />
        </mxCell>
        <mxCell id="Dmz19lWrv8xA1mBH7heF-83" value="write output file" style="shape=parallelogram;perimeter=parallelogramPerimeter;whiteSpace=wrap;html=1;fixedSize=1;" vertex="1" parent="WIyWlLk6GJQsqaUBKTNV-1">
          <mxGeometry x="320" y="940" width="120" height="60" as="geometry" />
        </mxCell>
        <mxCell id="Dmz19lWrv8xA1mBH7heF-85" style="edgeStyle=orthogonalEdgeStyle;rounded=0;orthogonalLoop=1;jettySize=auto;html=1;entryX=0.591;entryY=-0.006;entryDx=0;entryDy=0;entryPerimeter=0;" edge="1" parent="WIyWlLk6GJQsqaUBKTNV-1" source="Dmz19lWrv8xA1mBH7heF-68" target="Dmz19lWrv8xA1mBH7heF-83">
          <mxGeometry relative="1" as="geometry" />
        </mxCell>
        <mxCell id="Dmz19lWrv8xA1mBH7heF-91" style="edgeStyle=orthogonalEdgeStyle;rounded=0;orthogonalLoop=1;jettySize=auto;html=1;entryX=0.75;entryY=1;entryDx=0;entryDy=0;" edge="1" parent="WIyWlLk6GJQsqaUBKTNV-1" source="Dmz19lWrv8xA1mBH7heF-89" target="Dmz19lWrv8xA1mBH7heF-68">
          <mxGeometry relative="1" as="geometry">
            <Array as="points">
              <mxPoint x="655" y="850" />
              <mxPoint x="420" y="850" />
            </Array>
          </mxGeometry>
        </mxCell>
        <mxCell id="Dmz19lWrv8xA1mBH7heF-89" value="calculate confidence" style="whiteSpace=wrap;html=1;rounded=0;" vertex="1" parent="WIyWlLk6GJQsqaUBKTNV-1">
          <mxGeometry x="607.5" y="840" width="95" height="30" as="geometry" />
        </mxCell>
        <mxCell id="Dmz19lWrv8xA1mBH7heF-92" style="edgeStyle=elbowEdgeStyle;rounded=0;orthogonalLoop=1;jettySize=auto;html=1;startArrow=none;endArrow=none;entryX=0.01;entryY=0.427;entryDx=0;entryDy=0;entryPerimeter=0;" edge="1" parent="WIyWlLk6GJQsqaUBKTNV-1" source="Dmz19lWrv8xA1mBH7heF-29" target="Dmz19lWrv8xA1mBH7heF-36">
          <mxGeometry relative="1" as="geometry" />
        </mxCell>
        <mxCell id="Dmz19lWrv8xA1mBH7heF-98" value="&lt;h1 style=&quot;margin-top: 0px;&quot;&gt;DS_project1 : association rules&lt;/h1&gt;&lt;p&gt;2023076599 하상준&lt;/p&gt;" style="text;html=1;whiteSpace=wrap;overflow=hidden;rounded=0;" vertex="1" parent="WIyWlLk6GJQsqaUBKTNV-1">
          <mxGeometry x="35" y="40" width="360" height="80" as="geometry" />
        </mxCell>
      </root>
    </mxGraphModel>
  </diagram>
</mxfile>
